<svg width="160" height="36" fill="none" xmlns="http://www.w3.org/2000/svg"><path d="M159.19 11.701l-.467 5.47h-2.259c-3.61 0-5.479 2.85-5.479 5.598v12.352h-6.388v-23.42h6.05l.13 2.928c1.272-2.003 3.506-2.928 6.232-2.928h2.181zm-44.325 23.42h-6.388V22.743c0-2.593-.234-5.854-3.921-5.854-3.558 0-4.96 2.542-4.96 5.495v12.763h-6.388V11.7h5.92l.13 3.005c1.273-2.003 3.636-3.57 7.141-3.57 6.44 0 8.492 4.546 8.492 9.296V35.12h-.026zm-24.461-5.47l-.442 5.342c-1.532.41-2.908.564-4.544.564-6.024 0-7.764-2.721-7.764-8.217V5.128h6.388V11.7h6.362l-.442 5.47h-5.92v9.655c0 2.209.623 3.39 2.908 3.39.987 0 2.103-.128 3.454-.565zM75.55 11.701l-.494 5.47h-1.74c-3.61 0-5.4 2.85-5.4 5.598v12.352h-6.389v-23.42h6.05l.13 2.928c1.273-2.003 3.506-2.928 6.233-2.928h1.61zM32.652 32.527c-4.337 2.286-8.673 3.621-14.386 3.467C7.647 35.686.012 29.164.012 18.147.012 7.182 7.751.197 18.293.017c5.35-.077 10.127 1.259 13.867 4.52L27.667 9.03c-2.31-1.952-5.713-3.082-9.79-2.902-6.647.308-10.62 5.085-10.724 11.633-.078 7.113 4.31 11.992 11.192 12.172 3.246.077 5.557-.36 7.556-1.233v-7.267h-7.166l.493-5.958h13.425v17.051zM141.74 25.62h-17.528c.493 3.004 2.882 4.802 5.842 4.879 2.883.077 4.493-.796 6.596-2.902l4.181 3.159c-2.961 3.62-6.518 4.93-10.569 4.93-7.141 0-12.464-4.93-12.464-12.275 0-7.344 5.323-12.275 12.204-12.275 7.609 0 11.764 4.546 11.764 12.635v1.849h-.026zm-6.414-4.88c-.208-2.953-2.441-4.827-5.531-4.699-3.116.129-5.168 2.106-5.609 4.7h11.14zm-77.824-.975v15.33h-5.635l-.13-2.31c-1.74 2.13-4.544 2.875-7.426 2.875-4.362 0-8.465-2.131-8.543-7.062-.13-7.78 8.855-8.32 14.49-8.32h1.116v-.308c0-2.568-1.714-3.954-4.96-3.954-2.337 0-4.622.924-6.31 2.49l-3.687-3.697c3.35-2.697 6.83-3.698 10.543-3.698 7.297 0 10.542 3.364 10.542 8.654zM51.35 24.9h-.883c-3.038 0-8.335.154-8.335 3.287.026 4.416 9.218 3.004 9.218-2.312V24.9zm102.856 7.498c0-1.49 1.142-2.62 2.596-2.62 1.429 0 2.571 1.13 2.571 2.62 0 1.515-1.142 2.645-2.571 2.645-1.454-.026-2.596-1.13-2.596-2.645zm2.596 3.158c1.74 0 3.22-1.335 3.22-3.158 0-1.798-1.48-3.133-3.22-3.133-1.739 0-3.245 1.335-3.245 3.133 0 1.823 1.48 3.158 3.245 3.158zm-.675-2.927h.649l.961 1.566h.623l-1.038-1.592c.545-.077.961-.36.961-1.001 0-.72-.442-1.027-1.299-1.027h-1.402v3.646h.545V32.63zm0-.462v-1.13h.753c.39 0 .805.077.805.54 0 .564-.415.59-.883.59h-.675z" fill="#03363D"/></svg>