<svg width="115" height="19" fill="none" xmlns="http://www.w3.org/2000/svg"><g clip-path="url(#clip0)"><path d="M.575 4.288C.192 4.483 0 4.775 0 5.165v8.574c0 .39.192.682.575.877l7.092 4.287c.287.195.766.195 1.054 0l7.187-4.19c.384-.194.575-.487.575-.877V5.165c0-.488-.191-.78-.575-.877L8.721.098c-.288-.097-.671-.097-1.054 0L.575 4.288z" fill="#03363D"/><path d="M14.47 7.697c-3.353 0-6.133 2.923-6.133 6.529v.194H8.05v-.194c0-3.606-2.78-6.431-6.133-6.529v.682a6.659 6.659 0 004.025 6.139c.766.292 1.533.39 2.3.39.766 0 1.533-.098 2.3-.39 2.396-.877 4.025-3.313 4.025-6.139 0-.195 0-.487-.096-.682z" fill="#fff"/><path d="M8.242 8.087c1.111 0 2.012-.916 2.012-2.046s-.9-2.046-2.012-2.046-2.013.916-2.013 2.046.901 2.046 2.013 2.046z" fill="#fff"/><path d="M20.988 4.385c0-.195.191-.39.383-.39h1.341c.192 0 .384.195.384.39v4.19l3.833-4.385c.096-.097.192-.195.288-.195h1.533c.192 0 .288.098.383.292 0 .098 0 .195-.095.293l-3.93 4.58 4.217 5.163c.096.195.096.39-.096.487-.096 0-.096.098-.191.098h-1.63c-.096 0-.191 0-.287-.098l-4.025-5.066v4.677c0 .195-.192.39-.384.39h-1.341c-.192 0-.383-.195-.383-.39V4.385zm9.392 0c0-.195.19-.293.287-.293h1.245c.192 0 .288.195.288.293v3.8c.383-.293.958-.585 1.82-.585 2.205 0 2.876 1.559 2.876 3.41v3.605c0 .195-.192.293-.288.39h-1.245c-.192 0-.288-.195-.288-.39V11.01c0-.974-.48-1.559-1.246-1.559-.862 0-1.246.487-1.437 1.267v3.897c0 .195-.096.39-.384.39h-1.341c-.192 0-.288-.195-.288-.39V4.385zm10.35 5.943c.478 0 .862.098 1.34.195 0-.877-.19-1.364-.958-1.364-.67 0-1.341.098-2.012.292-.192.098-.383-.097-.383-.292l-.192-.78c-.096-.194 0-.39.192-.39.766-.194 1.629-.389 2.395-.389 2.205 0 2.684 1.17 2.684 3.118v3.898c0 .194-.192.292-.288.39h-.479c-.096 0-.192-.098-.287-.293l-.192-.487c-.575.584-1.342.877-2.204.877-1.438 0-2.396-.877-2.396-2.436 0-1.364.958-2.339 2.78-2.339zm0 3.216c.574 0 1.15-.488 1.245-.78v-1.072a3.396 3.396 0 00-1.054-.194c-.767 0-1.246.39-1.246.974.096.682.48 1.072 1.054 1.072zm4.695-5.457c0-.195.192-.292.288-.39h.575c.095 0 .287.098.287.195l.287.682a3.04 3.04 0 012.3-1.072c2.205 0 2.78 1.56 2.78 3.216v3.702c0 .195-.192.293-.288.39h-1.246c-.191 0-.287-.195-.287-.39v-3.702c0-.877-.384-1.462-1.246-1.462-.67 0-1.342.39-1.533 1.072v4.092c0 .293-.096.39-.48.39h-1.15c-.191 0-.287-.195-.287-.39V8.087zm10.158 6.333L60.28 3.995c.096-.098.192-.098.288-.098h.191c.096 0 .192.098.288.195l4.696 10.426c.096.097 0 .292-.096.39h-1.533c-.192 0-.288-.098-.48-.293l-.766-1.656h-4.505l-.766 1.656a.526.526 0 01-.48.293h-1.341c-.192 0-.288-.098-.288-.293 0-.097.096-.097.096-.194zm6.517-3.312l-1.533-3.41h-.096l-1.533 3.41H62.1zM69.575 7.6c1.054 0 1.917.487 2.587 1.17.192.194.096.39-.095.487l-.671.682c-.192.194-.288.097-.48-.098a1.986 1.986 0 00-1.437-.584c-1.054 0-1.82.876-1.82 1.948s.766 1.949 1.82 1.949c.767 0 1.15-.39 1.534-.78.095-.097.287-.194.479-.097l.67.585c.192.194.288.292.096.487-.575.974-1.533 1.461-2.779 1.461-2.012 0-3.737-1.559-3.737-3.702.096-1.949 1.725-3.508 3.833-3.508zm6.517 2.728c.479 0 .862.098 1.341.195 0-.877-.191-1.364-.958-1.364-.67 0-1.342.098-2.012.292-.192.098-.384-.097-.384-.292l-.191-.78c-.096-.194 0-.39.191-.39.767-.194 1.63-.389 2.396-.389 2.204 0 2.683 1.17 2.683 3.118v3.898c0 .194-.191.292-.287.39h-.48c-.095 0-.191-.098-.287-.293l-.192-.487c-.575.584-1.341.877-2.204.877-1.437 0-2.395-.877-2.395-2.436-.096-1.364.958-2.339 2.779-2.339zm0 3.216c.575 0 1.15-.488 1.246-.78v-1.072a3.396 3.396 0 00-1.055-.194c-.766 0-1.246.39-1.246.974 0 .682.384 1.072 1.055 1.072zM83.854 7.6c.575 0 1.15.097 1.725.292V4.385c0-.195.192-.293.384-.293h1.245c.192 0 .288.195.288.293v10.133c0 .195-.192.292-.288.39h-.575c-.191 0-.287-.098-.383-.39l-.192-.585a3.04 3.04 0 01-2.3 1.072c-1.916 0-3.354-1.559-3.354-3.703 0-2.143 1.342-3.702 3.45-3.702zm1.725 2.144a2.67 2.67 0 00-1.437-.39c-1.15 0-1.725.974-1.725 1.949 0 .974.575 1.948 1.629 1.948.862 0 1.437-.584 1.533-.974V9.744zM92.192 7.6c1.82 0 3.258 1.364 3.258 3.313v.487c0 .195-.192.292-.288.292h-4.504c0 .877.767 1.657 1.725 1.657.575 0 1.055-.195 1.534-.487.191-.098.383-.195.479 0l.575.78a.3.3 0 010 .389h-.096c-.767.682-1.63.974-2.588.974-2.108 0-3.545-1.656-3.545-3.702-.096-2.046 1.341-3.703 3.45-3.703zm1.341 2.826c0-.682-.575-1.267-1.341-1.267-.863 0-1.438.487-1.534 1.267h2.875zM96.6 8.087c0-.195.192-.292.288-.39h.575c.095 0 .287.098.287.195l.287.682c.48-.682 1.342-1.072 2.109-1.072 1.054 0 1.533.39 2.108 1.072.288-.292.958-1.072 2.3-1.072 2.204 0 2.779 1.462 2.779 3.313v3.703c0 .195-.191.39-.383.39h-1.246c-.192 0-.287-.195-.287-.39v-3.703c0-.877-.384-1.461-1.246-1.461-1.054 0-1.342.78-1.342.78v4.481c0 .195-.192.293-.287.39h-1.246c-.192 0-.288-.097-.384-.292V11.01c0-.877-.287-1.461-1.15-1.461-.862 0-1.15.584-1.341 1.071v4.093c0 .195-.192.292-.288.39h-1.245c-.192 0-.288-.195-.288-.39V8.087zm11.404.097c-.096-.292 0-.487.288-.487h1.437c.096 0 .288.098.288.195l1.245 4.287 1.63-4.287c.095-.195.191-.195.479-.195h1.246c.191 0 .287.098.383.293v.194l-4.121 10.134c-.096.097-.192.195-.287.195h-1.438c-.192 0-.287-.098-.383-.293v-.194l1.437-3.606-2.204-6.236z" fill="#03363D"/></g><defs><clipPath id="clip0"><path fill="#fff" d="M0 0h115v19H0z"/></clipPath></defs></svg>