<svg width="115" height="33" fill="none" xmlns="http://www.w3.org/2000/svg"><g clip-path="url(#clip0)"><path d="M7.1 17.104h-.7c-1.7.301-2.8 1.81-2.5 3.52.2 1.61 1.9 3.02 3.5 3.12h.5c1.7-.302 2.2-2.113 1.9-3.924-.4-1.912-1.8-2.616-2.7-2.716zm1.7 4.829c-.2.201-.4.302-.7.302-.5 0-.9-.403-.8-.906 0-.302.1-.604.2-.905.2-.403 0-.805-.3-1.006-.2-.101-.5-.202-.7-.101-.2 0-.4.201-.6.402-.1.101-.2.302-.2.503v.101c-.1.201-.2.302-.3.201-.1 0-.1-.1-.1-.1-.1-.503.1-1.107.5-1.51.3-.301.8-.503 1.3-.402.5.1.9.402 1.2.805.2.503.2 1.207-.1 1.71 0 0 0 .1-.1.1-.1.202-.1.403 0 .605.1.1.2.2.4.2h.4c-.1-.2-.1-.1-.1 0z" fill="#fff"/><path d="M29.4 25.253c.4-.905.6-1.912.6-2.918 0-1.207-.7-1.71-1.1-1.71 0 0-.1-.402-.2-.704-.1-.201-.1-.403-.2-.704.4-.504.5-1.107.4-1.71-.1-.504-.3-.906-.6-1.208-.6-.503-1.4-.906-2.2-1.107-.1 0-.5-.1-.6-.201 0 0 0-1.308-.1-1.912 0-.603-.1-1.106-.3-1.71-.2-.805-.6-1.51-1.2-2.113 1.4-1.51 2.3-3.119 2.3-4.527 0-2.717-3.3-3.522-7.4-1.811l-.9.402-1.6-1.509C11.7-2.213-2.8 13.884 1.8 17.808l1 .905c-.3.705-.4 1.51-.3 2.314.1 1.107.7 2.214 1.6 2.918.8.805 1.9 1.207 3.1 1.207 1.8 4.125 5.9 6.741 10.7 6.842 5.3.1 9.7-2.314 11.5-6.741zm1-4.93c.4.604.7 1.308.6 2.012 0 1.107-.3 2.214-.7 3.32-.9 2.314-2.6 4.125-4.7 5.433C23.4 32.396 20.9 33 18.4 33h-.5c-2.5-.1-4.9-.805-7-2.113-1.9-1.207-3.4-2.817-4.4-4.83a6.402 6.402 0 01-3.1-1.508c-1.1-.906-1.8-2.214-1.9-3.622-.1-.704 0-1.409.1-2.012l-.5-.403C.5 17.908 0 17.003 0 15.896c0-1.006.1-2.113.5-3.018 1-2.616 3.2-5.835 5.9-8.451C7.7 3.22 9 2.213 10.5 1.307 11.7.504 13.1.102 14.6 0c.9 0 1.8.302 2.6.905l1.1 1.107c.1 0 .2-.1.2-.1 1.4-.604 2.8-.906 4.3-1.007 2.8 0 4.5 1.51 4.5 3.824 0 1.408-.7 3.018-2 4.527.3.503.6 1.107.8 1.71.2.604.3 1.308.3 1.912v1.107c.9.201 1.8.704 2.5 1.308.5.503.8 1.106.9 1.81.1.705 0 1.41-.3 2.013 0 .1.1.201.1.201 0 .1 0 .201.1.201.3.403.5.604.7.805z" fill="#fff"/><path d="M27.2 19.015c.4-.302.5-.805.5-1.308 0-.201-.1-.503-.3-.603-.5-.403-1.1-.705-1.8-.805-.3-.1-.5-.1-.7-.201-.4-.101-.6-.202-.6-1.007 0-.301-.1-1.408-.1-1.911 0-.805-.1-1.912-.8-2.415-.2-.1-.4-.201-.6-.201h-.3c-.3.1-.7.302-.9.503-.6.604-1.5.905-2.4.805-.5 0-1-.1-1.6-.1h-.3c-1.5 0-2.8 1.207-3 2.716-.3 2.314 1.3 3.521 1.8 4.225.1.101.1.202.1.302 0 .1-.1.201-.2.302-1.3 1.51-1.8 3.622-1.3 5.534.1.2.1.503.2.704 1.2 2.817 4.9 4.225 8.6 3.018.5-.201.9-.402 1.4-.604.8-.402 1.5-.905 2.1-1.61.9-1.005 1.6-2.213 1.8-3.52.1-.705-.1-1.007-.3-1.107-.2-.101-.3-.101-.5-.101-.1-.604-.3-1.107-.5-1.71l-.3-.906zm-6-11.067c.1 0 .1-.1 0-.1-.9-.403-1.8-.705-2.8-.705 0 0-.1 0-.1-.1.2-.202.3-.403.5-.503v-.101c-1.2.1-2.3.503-3.4 1.207h-.1c.1-.302.2-.603.4-.905v-.1c-1.5.804-2.7 1.91-3.8 3.118v.1h.1c1.2-.905 2.6-1.508 4.1-1.81 1.7-.403 3.4-.403 5.1-.1zm-4.3-4.125s-1.3-1.509-1.6-1.61C12.9 1.61 7.9 5.131 4.7 9.76c-1.3 1.912-3.2 5.131-2.3 6.842.3.402.7.704 1.1 1.006.6-.805 1.5-1.308 2.5-1.51 1.3-3.621 3.5-6.74 6.4-9.054 1.4-1.208 2.9-2.314 4.5-3.22z" fill="#fff"/><path d="M8.7 21.832v.202c-.1.2-.4.402-.7.301-.5-.1-.8-.503-.8-.905 0-.302.1-.604.2-.905.2-.403 0-.805-.3-1.007-.2-.1-.4-.2-.7-.1-.2 0-.4.201-.5.402-.1.1-.2.302-.2.503v.1c-.1.202-.2.303-.3.303 0 0-.1 0-.1-.1-.1-.605.1-1.108.5-1.51.3-.302.8-.503 1.3-.503.5.1.9.402 1.1.805.2.603.2 1.207-.1 1.71 0 0 0 .1-.1.1-.1.202-.1.403 0 .604.1.101.2.202.4.202h.2c-.1-.302 0-.302.1-.202zm21.3.503c0 1.006-.3 2.013-.6 2.918-1.8 4.326-6.1 6.842-11.3 6.64-4.8-.1-8.9-2.716-10.7-6.841-1.1 0-2.2-.503-3-1.207-.9-.705-1.4-1.811-1.6-2.918-.1-.805 0-1.61.3-2.314l-1-.906c-4.6-3.923 9.8-20.02 14.4-15.997l1.6 1.51s.8-.403.9-.403c4-1.71 7.3-.905 7.3 1.811 0 1.409-.9 3.018-2.3 4.528.6.603 1 1.307 1.2 2.112.2.503.2 1.107.3 1.71 0 .604.1 1.912.1 1.912s.4.1.6.201c.8.202 1.6.604 2.2 1.107.3.302.6.805.6 1.208.1.603-.1 1.207-.4 1.71.1.201.2.402.2.704.1.403.2.704.2.704.3.101 1 .604 1 1.811zM9.7 19.921c-.3-2.012-1.7-2.717-2.6-2.817h-.7c-1.7.302-2.6 1.71-2.4 3.622.3 1.71 1.7 3.018 3.4 3.119h.5c1.6-.202 2-2.113 1.8-3.924zm2.8-12.878c1.4-1.208 2.9-2.214 4.5-3.12 0 0-1.2-1.508-1.6-1.609C13 1.71 8 5.232 4.8 9.76c-1.3 1.912-3.2 5.131-2.3 6.842.3.402.7.704 1.1 1.006.6-.805 1.5-1.409 2.5-1.61 1.2-3.42 3.5-6.64 6.4-8.954zm5 16.097c.1.503.5 1.006 1.1 1.107.3.1.6.201.9.201 3.7.604 7.1-1.509 7.9-2.012.1 0 .1 0 0 .1 0 0 0 .101-.1.101-.9 1.208-3.5 2.616-6.8 2.616-1.4 0-2.9-.503-3.4-1.308-.8-1.207 0-3.018 1.3-2.817 0 0 .5.1.6.1 2.1.202 4.3-.1 6.2-1.005 1.9-.906 2.6-1.811 2.5-2.616 0-.201-.1-.503-.3-.604-.5-.402-1.1-.704-1.8-.805-.3-.1-.5-.1-.7-.201-.4-.1-.6-.201-.6-1.006 0-.302-.1-1.409-.1-1.912 0-.805-.1-1.911-.8-2.414-.2-.1-.4-.201-.6-.201h-.3c-.3.1-.7.301-.9.502-.6.604-1.5.906-2.4.805-.5 0-1-.1-1.6-.1h-.3c-1.5 0-2.8 1.207-3 2.716-.3 2.314 1.3 3.522 1.8 4.125.1.1.1.201.1.302 0 .1-.1.201-.2.302-1.3 1.51-1.8 3.622-1.3 5.534.1.2.1.402.2.704 1.2 2.817 4.9 4.125 8.6 2.917.5-.2.9-.402 1.4-.603.8-.403 1.5-.906 2.1-1.61.9-.905 1.6-2.213 1.8-3.521.1-.705-.1-1.006-.3-1.107-.2-.1-.3-.1-.5-.1-.1-.604-.3-1.107-.5-1.711-1 .805-2.2 1.409-3.5 1.71-1.5.403-3.1.604-4.6.503-1-.1-1.7-.402-1.9.403 1.5.503 3.1.704 4.7.503 0 0 .1 0 .1.1 0 0 0 .101-.1.101.2.302-1.7 1.107-4.7.201zM12.1 9.86c1.2-.906 2.6-1.51 4.1-1.811 1.7-.403 3.4-.403 5 0 .1 0 .1-.1 0-.1-.9-.403-1.8-.705-2.8-.705 0 0-.1 0 0-.1.2-.202.3-.403.5-.504v-.1c-1.2.1-2.3.503-3.3 1.207h-.1c.1-.302.2-.604.4-.905V6.74c-1.5.704-2.8 1.81-3.8 3.119-.1-.1-.1 0 0 0-.1 0 0 0 0 0zm9.6 7.747c.2.1.5.1.6-.1.1-.202 0-.403-.3-.504-.2-.1-.5-.1-.6.1-.1.202.1.403.3.504zm.8-2.918c.1.302.2.604.4.906h.6c.1-.403.1-.705 0-1.107-.1-.704-.3-1.107-.8-1.006-.3.1-.3.603-.2 1.207zm.9 1.61c-.3-.1-.6.1-.6.402-.1.302.1.604.4.604.3.1.6-.1.6-.402v-.101c0-.302-.2-.503-.4-.503z" fill="#03363D"/><path d="M16.6 16.198c-.1 0-.1 0-.1-.1 0-.101.2-.302.3-.403.6-.402 1.3-.503 1.9-.201.3.1.5.302.7.604.1.1.1.2 0 .2-.1.101-.2 0-.5-.1-.3-.201-.7-.201-1.1-.201-.3 0-.8.1-1.2.201zm2.8.604c-.2-.302-.6-.403-.9-.302-.3 0-.5.1-.7.302-.1.1-.2.201-.2.302v.1h.1c.1 0 .2 0 .3-.1.4-.101.8-.202 1.2-.101h.3l-.1-.201z" fill="#03363D"/><path d="M18.9 16.902c.1-.402.1-.805 0-1.308-.1-.704-.4-1.006-.8-1.006-.4.101-.4.604-.3 1.308.1.302.2.604.4.906.3.503.5.402.7.1zm91.5 2.818c-.8 0-1.3-1.006-1.3-2.314s.6-2.314 1.3-2.314c.9 0 1.3.804 1.3 2.314 0 1.509-.3 2.314-1.3 2.314zm.9-7.445c-1.3 0-2.4.804-2.8 2.012-.2.503-.2.603-.4.603s0-.402.1-.805c.1-.503.1-1.106.1-1.61h-2.4v11.772h3.3v-3.723c.4.805 1.3 1.41 2.2 1.41 2.4 0 3.6-2.013 3.6-4.83 0-3.12-1.4-4.83-3.7-4.83zm-24.7.2v9.156h3.3v-9.155c-.5.201-1.1.402-1.7.302-.6.1-1.1 0-1.6-.302zm-4.2-.2c-1.9 0-2.7 1.81-2.8 2.112-.1.302-.2.503-.3.503-.2 0-.1-.402 0-.603.3-1.006.5-2.113.5-3.22 0-.503 0-.905-.1-1.408h-2.9V21.63h3.3v-4.527c0-.704.3-2.012 1.1-2.012.7 0 .9.503.9 1.509v5.03h3.3v-4.829c.1-2.314-.3-4.527-3-4.527zm-11.9 4.829c0-.805.8-1.61 2.2-1.61 1.1 0 2.1.302 3 .905V13.18s-1-.905-3.4-.905c-2.5 0-4.6 1.509-4.6 4.628s1.9 4.93 4.6 4.93c1.2 0 2.4-.403 3.4-1.208v-3.018c-.9.604-1.9.905-3 1.006-1.6.1-2.2-.604-2.2-1.51zm-7-7.345h3.3v11.973h-3.3V9.759zm-10.3 9.76c-.8.2-1.2-.101-1.2-.604 0-.704.7-1.006 1.8-1.006h.9c-.2.805-.7 1.408-1.5 1.61zm.9-7.244c-1.5 0-3 .301-4.4.905v2.716s2-1.207 3.7-1.207c1.3 0 1.5.704 1.4 1.308-.5-.1-1-.1-1.5-.1-2.7 0-4.1 1.207-4.1 3.219 0 1.912 1.5 2.716 2.8 2.716 1.3 0 2.5-.704 3-1.911.2-.403.2-.704.4-.704s.1.2.1.603c0 .604 0 1.208.1 1.71h2.5v-4.527c0-2.616-1-4.729-4-4.729zm47.6 0c-1.1.1-2.1.804-2.5 1.911-.2.403-.2.704-.4.704s-.1-.402-.2-.905c-.3-1.107-1.3-1.811-2.4-1.71-1.5 0-2.2 1.307-2.5 2.012-.2.503-.2.603-.4.603s0-.402.1-.805c.1-.503.1-1.106.1-1.61H91v9.156h3.3v-4.527c0-.906.4-2.012 1-2.012.7 0 .9.603.9 1.61v5.03h3.3v-4.628c0-.805.3-2.012 1-2.012.8 0 .9.804.9 1.61v5.03h3.3v-5.433c.1-2.415-.8-4.024-3-4.024zm-56.4 0c-1.1.1-2.1.804-2.5 1.911-.2.403-.2.704-.4.704s-.1-.301-.2-.905c-.3-1.107-1.3-1.811-2.4-1.71-1.5 0-2.2 1.307-2.5 2.012-.2.503-.2.603-.4.603s0-.402.1-.805c.1-.503.1-1.106.1-1.61h-2.4v9.156H38v-4.527c0-.906.4-2.012 1-2.012.7 0 .9.603.9 1.61v5.03h3.3v-4.628c0-.805.3-2.012 1-2.012.8 0 .9.804.9 1.61v5.03h3.3v-5.433c0-2.415-.9-4.024-3.1-4.024zm40.9-1.308c0-.705.9-1.308 2-1.308s2 .603 2 1.308c0 .704-.9 1.307-2 1.307s-2-.603-2-1.307zm-25.4 1.911c.6 0 1.1-.1 1.7-.302v9.156h-3.3v-9.156l1.6.302zm-2-1.911c0-.705.9-1.308 2-1.308s2 .603 2 1.308c0 .704-.9 1.307-2 1.307s-2-.603-2-1.307z" fill="#03363D"/></g><defs><clipPath id="clip0"><path fill="#fff" d="M0 0h115v33H0z"/></clipPath></defs></svg>