<svg width="106" height="17" fill="none" xmlns="http://www.w3.org/2000/svg"><path fill-rule="evenodd" clip-rule="evenodd" d="M.3 16.195v-3.219c1.8.604 3.4.906 4.8.906 1.9 0 2.9-.503 2.9-1.51 0-.402-.1-.703-.4-1.005-.3-.302-1-.704-2.2-1.107-2.1-.905-3.5-1.71-4.1-2.313C.4 7.142 0 6.137 0 4.929c0-1.61.6-2.817 1.8-3.621C3 .402 4.6 0 6.5 0c1.1 0 2.6.201 4.6.604v3.118C9.6 3.018 8.3 2.716 7 2.716c-1.8 0-2.7.503-2.7 1.509 0 .402.2.704.5.905.3.201 1.1.604 2.5 1.207 2 .906 3.3 1.61 3.9 2.314.8.805 1.2 1.81 1.2 3.018 0 1.71-.8 3.118-2.3 4.023-1.2.704-2.8 1.107-4.8 1.107-1.6 0-3.3-.201-5-.604zm14.7.201V.302h4.5v16.195H15v-.1zm8.6 0V.302h11.6v2.917H28V6.84h6.3v2.616H28v3.822h7.4v3.118H23.6zm14.8 0V.302h5.8l4.1 10.36L52.5.303h5.6v16.195h-4.3V5.03l-4.7 11.568h-2.8L41.6 5.03v11.467h-3.2v-.1zm23.8 0V.302h11.6v2.917h-7.2V6.84h6.3v2.616h-6.3v3.822H74v3.118H62.2zm14.7 0V.302h5.2l5.6 10.763V.302h3.2v16.195h-5.1L80.2 5.432v10.964h-3.3zm17.2-.2v-3.22c1.8.604 3.4.906 4.8.906 1.9 0 2.9-.503 2.9-1.51 0-.402-.1-.703-.4-1.005-.3-.302-1-.704-2.2-1.107-2.1-.905-3.5-1.61-4.2-2.213-.8-.804-1.3-1.81-1.3-3.118 0-1.61.6-2.817 1.8-3.621C96.7.503 98.3.1 100.2.1c1.1 0 2.5.2 4.2.503l.4.1v3.118c-1.5-.603-2.9-.905-4.2-.905-1.8 0-2.7.503-2.7 1.509 0 .402.2.704.5.905.3.202 1.1.604 2.5 1.207 2 .906 3.3 1.61 3.9 2.314.8.805 1.2 1.81 1.2 3.018 0 1.71-.8 3.118-2.3 4.024-1.2.704-2.8 1.106-4.8 1.106-1.4-.201-3.1-.402-4.8-.805z" fill="#03363D"/></svg>