<svg width="115" height="18" fill="none" xmlns="http://www.w3.org/2000/svg"><path d="M0 18h104.538L115 0H0v18z" fill="#03363D"/><path d="M19.843 6.425c-.432-.344-.951-.43-1.47-.43-.605 0-1.124.43-1.124.861 0 .345.173.517.605.603l.692.172c.865.345 1.384.69 1.384 1.464 0 1.464-1.297 2.584-3.286 2.584-.951 0-1.643-.172-2.162-.603l.692-1.033c.519.344 1.037.516 1.816.516.864 0 1.383-.43 1.383-1.12 0-.344-.173-.516-.692-.688l-.691-.172c-.692-.173-1.297-.603-1.297-1.378 0-1.378 1.297-2.412 2.853-2.412.865 0 1.556.172 2.075.603l-.778 1.033zm3.609 1.34h-.865l-.518 2.498v.43c0 .345.086.345.432.345.086 0 .346 0 .519-.086v.689c-.433.086-.692.172-1.038.172-.691 0-1.124-.345-1.124-.861 0-.173 0-.431.087-.603l.518-2.67h-.518l.173-.861h.518c.087-.517.173-.862.346-1.12l1.384-.344c-.087.43-.346.947-.433 1.464h1.124l-.605.947zm3.082-.029c-.346 0-.519 0-.951.43-.433.517-.606 1.465-.606 2.068 0 .43.087.602.433.602.432 0 .864-.43.95-.688l.52-2.326s-.173-.086-.346-.086zm1.47.603l-.433 1.895c-.086.43 0 .689.173.947l-1.037.861c-.173-.086-.346-.43-.433-.603-.432.431-.691.603-1.383.603-.951 0-1.384-.516-1.384-1.55 0-1.12.433-2.153 1.038-2.842.519-.517 1.124-.69 1.989-.69.605 0 1.297.087 1.643.345.086.087 0 .603-.173 1.034zm2.522-1.694c.087.172.087.603.087.861.432-.43.95-.689 1.643-.689.605 0 .95.43.95.948 0 .172 0 .516-.086.689l-.691 3.358H31.13l.692-3.272c0-.173.087-.345.087-.43 0-.173-.087-.345-.346-.345-.346 0-.605.172-1.038.689l-.692 3.272h-1.296l.691-3.358c.087-.517.087-.948 0-1.292l1.297-.431zm5.696-.555l-.692 3.618c-.086.603-.173.861-.173.947 0 .173.087.345.173.345h.087l.086.689c-.173.086-.519.086-.865.086-.691 0-1.037-.43-1.037-.861 0-.172.086-.517.086-.947l.692-3.618c.087-.603.173-1.033.087-1.464l1.383-.43c.346.344.346 1.033.173 1.636zm2.215 2.74c.519 0 1.124-.172 1.124-.688 0-.345-.086-.517-.519-.517-.518 0-.864.344-1.037 1.12a.943.943 0 00.432.086zm1.902 2.412c-.605.43-1.297.603-1.988.603-1.124 0-1.903-.603-1.903-1.809 0-1.033.433-2.067 1.124-2.67.52-.43 1.038-.602 1.643-.602.951 0 1.643.43 1.643 1.378 0 .947-.864 1.636-2.507 1.636-.346 0-.606-.086-.606-.086v.43c0 .517.346.862.865.862.432 0 .951-.172 1.383-.517l.346.775zm2.559-4.467l.173 2.842v1.033s.346-.86.605-1.464l1.297-2.325h1.383l-2.853 4.995c-.519.948-.865 1.378-1.297 1.637-.432.172-.865.43-1.297.43l-.173-.861c.346-.086.605-.172.865-.345.432-.172.519-.43.864-.947h-.346c0-.344-.086-.947-.086-1.378l-.432-3.445 1.297-.172zm5.489 1.032h.865c.432 0 .519-.086.692-.172.173-.087.432-.431.432-.69 0-.43-.173-.602-.692-.602h-.864l-.433 1.464zm-.519 2.928h.865c.346 0 .519-.086.692-.172.346-.173.519-.603.519-.948 0-.43-.173-.603-.865-.603h-.951l-.26 1.723zm2.249-5.684c1.037 0 1.815.516 1.815 1.464 0 .603-.432 1.378-1.383 1.636.605.086 1.038.603 1.038 1.292 0 .43-.173 1.034-.606 1.55-.519.517-1.037.69-2.075.69H46.4l1.47-6.632h2.248zM54.44 6.09l-.691 3.618c-.087.603-.173.861-.173.947 0 .173.086.345.173.345h.086l.087.689c-.173.086-.52.086-.865.086-.692 0-1.038-.43-1.038-.861 0-.172.087-.517.087-.947l.692-3.618c.086-.603.173-1.033.086-1.464l1.384-.43c.346.344.346 1.033.172 1.636zm3.27 1.646c-.346 0-.52 0-.952.43-.432.517-.605 1.465-.605 2.068 0 .43.086.602.432.602.433 0 .865-.43.951-.688l.52-2.326s-.26-.086-.347-.086zm1.47.603l-.433 1.895c-.087.43 0 .689.173.947l-1.038.861c-.173-.086-.346-.43-.432-.603-.346.431-.692.603-1.297.603-.951 0-1.383-.516-1.383-1.55 0-1.12.432-2.153 1.037-2.842.519-.517 1.124-.69 1.989-.69.605 0 1.297.087 1.643.345-.087.087-.173.603-.26 1.034zm4.081-.254c-.173-.172-.519-.344-.692-.344a.75.75 0 00-.605.344c-.346.431-.692 1.465-.692 2.154 0 .516.173.689.606.689.345 0 .691-.173 1.037-.517l.432.861c-.518.43-1.037.603-1.815.603-1.038 0-1.643-.603-1.643-1.636 0-1.292.519-2.326 1.297-2.929.432-.43.951-.602 1.556-.602.433 0 .951.172 1.297.602l-.778.775zm5.98-1.251l-1.989 2.067 1.384 2.842H67.08l-1.038-2.842 1.643-2.067h1.556zm-2.594-2.24c.087.173.087.862-.173 1.895l-1.124 5.34h-1.297l1.124-5.426c.087-.689.173-1.033.087-1.378l1.383-.43zm6.073 2.151c0-.345-.173-.517-.519-.517-.432 0-.691.345-.691.861 0 .173.086.431.432.69.433-.259.778-.69.778-1.034zm-2.161 3.531c0 .43.346.689.95.689.433 0 .865-.086 1.038-.345L71.25 9.156c-.518.173-.691.603-.691 1.12zm4.15-1.809c-.086.603-.432 1.378-.692 1.895l1.124 1.378H73.5l-.346-.43c-.433.344-1.038.516-1.99.516-1.382 0-2.074-.603-2.074-1.55 0-.861.519-1.55 1.556-1.98-.432-.432-.519-.69-.519-1.12 0-1.034.951-1.895 2.335-1.895.951 0 1.556.517 1.556 1.12 0 .688-.346 1.291-1.47 1.894l-.086.086.865 1.034c.173-.345.345-.862.345-1.034h1.124c-.086 0-.086.086-.086.086zm2.615 2.096h.606c.605 0 1.037-.344 1.296-.689.606-.947.692-2.325.692-2.584 0-.602-.173-1.12-1.037-1.12h-.606l-.95 4.393zm1.384-5.512c1.124 0 1.816.086 2.161.603.346.43.52.861.52 1.636 0 1.034-.433 2.498-1.298 3.446-.692.688-1.383 1.033-2.853 1.033h-1.643l1.47-6.632 1.643-.086zm5.08 3.779c.518 0 1.124-.172 1.124-.688 0-.345-.087-.517-.52-.517-.518 0-.864.344-1.037 1.12.087.086.26.086.433.086zm1.902 2.412c-.605.43-1.297.603-1.989.603-1.124 0-1.902-.603-1.902-1.809 0-1.033.432-2.067 1.124-2.67.519-.43 1.037-.602 1.643-.602.95 0 1.643.43 1.643 1.378 0 .947-.865 1.636-2.508 1.636-.346 0-.605-.086-.605-.086v.43c0 .517.346.862.864.862.433 0 .952-.172 1.384-.517l.346.775zm4.418-3.157c-.173-.172-.519-.344-.691-.344a.75.75 0 00-.606.344c-.346.431-.691 1.465-.691 2.154 0 .516.172.689.605.689.346 0 .692-.173 1.038-.517l.432.861c-.519.43-1.038.603-1.816.603-1.038 0-1.643-.603-1.643-1.636 0-1.292.519-2.326 1.297-2.929.433-.43.951-.602 1.556-.602.433 0 .952.172 1.297.602l-.778.775zm5.893-1.251l-1.989 2.067 1.384 2.842h-1.557l-1.037-2.842 1.643-2.067H96zm-2.508-2.24c.087.173.087.862-.172 1.895l-1.124 5.34H90.9l1.124-5.426c.086-.689.172-1.033.086-1.378l1.383-.43zm4.271 4.236c.519 0 1.124-.172 1.124-.688 0-.345-.087-.517-.519-.517-.519 0-.865.344-1.037 1.12a.943.943 0 00.432.086zm1.989 2.412c-.606.43-1.297.603-1.99.603-1.123 0-1.901-.603-1.901-1.809 0-1.033.432-2.067 1.124-2.67.518-.43 1.037-.602 1.642-.602.952 0 1.643.43 1.643 1.378 0 .947-.864 1.636-2.507 1.636-.346 0-.605-.086-.605-.086v.43c0 .517.345.862.864.862.433 0 .951-.172 1.384-.517l.346.775zm2.799-4.597c.086.172.086.517.086.861.433-.43.951-.689 1.384-.689.173 0 .346 0 .432.086l-.519 1.12c-.086-.086-.173-.086-.432-.086-.173 0-.519.086-.951.603l-.692 3.273h-1.297l.692-3.273c.086-.603.086-1.034 0-1.378l1.297-.517z" fill="#fff"/></svg>