<svg width="80" height="28" fill="none" xmlns="http://www.w3.org/2000/svg"><path d="M10.9 24.273c3.8 0 6.7-2.92 6.7-7.251V0h4.1v27.496h-4.1v-2.518C15.8 26.892 13.2 28 10.4 28 4.5 28 0 23.67 0 17.223V0h4.1v16.92c0 4.432 3 7.353 6.8 7.353zM24.7 0h3.9v9.971C30.4 8.058 33 6.95 35.7 6.95c5.9 0 10.4 4.633 10.4 10.474 0 5.742-4.6 10.375-10.4 10.375-2.7 0-5.2-1.108-7.1-3.022v2.518h-3.9V0zm10.7 24.475c3.7 0 6.8-3.123 6.8-6.95 0-3.928-3.1-6.95-6.8-6.95-3.7-.1-6.8 3.022-6.8 6.85 0 3.827 3 7.05 6.8 7.05zM57.9 7.05c5.7 0 9.9 4.432 9.9 10.374v1.31H51.6c.5 3.324 3.3 5.64 6.6 5.64 2.3 0 4.2-1.007 5.7-2.92l2.9 2.114c-2 2.72-5 4.23-8.6 4.23-6 0-10.5-4.431-10.5-10.373 0-5.64 4.3-10.375 10.2-10.375zm-6.2 8.561h12.1c-.7-3.122-3.1-5.036-6.1-5.036-3 0-5.3 1.914-6 5.037zm26.7-4.633c-2.6 0-4.4 2.015-4.4 5.036v11.382h-4V7.453h3.9V9.87c1-1.611 2.6-2.618 4.8-2.618H80v3.827l-1.6-.1z" fill="#03363D"/></svg>