<svg width="91" height="25" fill="none" xmlns="http://www.w3.org/2000/svg"><g clip-path="url(#clip0)" fill="#03363D"><path d="M6.987 20.665h11.1c.1 0 .1.099 0 .099-1.2.595-3.1 2.282-3.1 2.282-1.2 1.19-2.2 1.984-4.3 1.984H.087c-.1 0-.1-.1 0-.1 1.2-.694 2.9-2.38 2.9-2.38.7-.794 2.2-1.885 4-1.885zm72.8 0h11.1c.1 0 .1.099 0 .099-1.3.595-3 2.282-3 2.282-1.3 1.19-2.3 1.984-4.3 1.984h-10.6c-.1 0-.1-.1 0-.1 1.2-.694 2.9-2.38 2.9-2.38.6-.794 2.1-1.885 3.9-1.885zm-54.6 0h11.1c.1 0 .1.099 0 .099-1.2.595-3 2.282-3 2.282-1.2 1.19-2.2 1.984-4.3 1.984h-10.7c-.1 0-.1-.1-.1-.1 1.2-.694 2.9-2.38 2.9-2.38.8-.794 2.3-1.885 4.1-1.885zm18.2 0h11.1c.1 0 .1.099 0 .099-1.2.595-3 2.282-3 2.282-1.2 1.19-2.2 1.984-4.3 1.984h-10.7c-.1 0-.1-.1-.1-.1 1.2-.694 2.9-2.38 2.9-2.38.8-.794 2.3-1.885 4.1-1.885zm18.2 0h11.1c.1 0 .1.099-.1.099-1.2.595-3 2.282-3 2.282-1.2 1.19-2.2 1.984-4.3 1.984h-10.6c-.1 0-.1-.1 0-.1 1.2-.694 2.9-2.38 2.9-2.38.7-.794 2.2-1.885 4-1.885zm3-20.635c-7 0-11.7 3.472-11.7 8.73 0 4.762 4.3 8.036 10.6 8.036 2.1 0 3.9-.298 6-.794v-4.067c-1.5 1.587-3.3 2.182-5.2 2.182-3.7 0-6.4-2.38-6.4-5.754.1-3.373 2.8-5.853 6.5-5.853 2 0 3.6.694 4.9 1.984V.427c-1.3-.199-3-.397-4.7-.397zm-52.2 2.877c2.6 0 5.7.496 7 1.587V.625H.987v3.87c1.3-.993 4.1-1.489 7.1-1.489v10.417c0 1.587-.1 1.984-.8 2.777h5.9c-.7-.793-.8-1.19-.8-2.777V2.907zm18.8 3.77c-1 .396-2.9.496-3.9.496h-1.6V2.907h2.1c1.9 0 5 .397 6.3 1.389V.625h-13.5c.7.694.8 1.19.8 2.778v10.02c0 1.587-.1 1.984-.7 2.777h14.2v-3.77c-2 1.39-5.7 1.39-7.2 1.39h-2.1V9.454h1.5c1 0 2.9.1 4 .496l.1-3.273zm19.9-5.655c-2.2-.695-4.9-.992-7.1-.992-3.9 0-7.7 1.19-7.7 5.159 0 6.845 11.7 3.174 11.7 7.44 0 1.389-2.1 1.984-3.7 1.984-2.9 0-5-.496-7.7-2.083v3.472c2 .695 4.6.992 7.5.992 4 0 7.8-1.091 7.8-5.159 0-7.143-11.6-3.968-11.6-7.44 0-1.389 1.9-1.984 3.5-1.984 2.7 0 5.7.793 7.3 2.38v-3.77zm29.9-.794c-6.3 0-10.7 3.472-10.7 8.334 0 4.761 4 8.035 9.9 8.035 6.4 0 10.7-3.274 10.7-8.333 0-4.762-4-8.036-9.9-8.036zm-.5 13.988c-3.3 0-5.5-2.58-5.5-5.754 0-3.174 2.2-5.754 5.5-5.754s5.5 2.58 5.5 5.754c0 3.175-2.1 5.754-5.5 5.754z"/></g><defs><clipPath id="clip0"><path fill="#fff" d="M0 0h91v25H0z"/></clipPath></defs></svg>